# xmcd
#
# Track frame offsets:
#	150
#	26481
#	54329
#	80515
#	95737
#	119569
#	144364
#	174589
#	187953
#	225023
#	248019
#	280330
#	304887
#
# Disc length: 4544 seconds
#
# Revision: 0
# Processed by: cddbd v1.5.2PL0 Copyright (c) Steve Scherf et al.
# Submitted via: EZCDAudioConverter 1.3.4.1
#
DISCID=a511be0d
DTITLE=STAN GETZ - GOLD 2/2
DYEAR=1900
DGENRE=
TTITLE0=DESAFINADO
TTITLE1=SAMBA DE UMA NOTA SO (ONE NOTE SAMBA)
TTITLE2=MANHA DE CARNIVAL
TTITLE3=INSENSATEZ
TTITLE4=THE GIRL FROM IPANEMA
TTITLE5=O GRANDE AMOR
TTITLE6=OUTRA VEZ (ONCE AGAIN)
TTITLE7=A TRIBUTE TO STAN
TTITLE8=SUMMERTIME
TTITLE9=MELINDA
TTITLE10=SWEET RAIN
TTITLE11=MADRUGADA
TTITLE12=YOURS AND MINE
EXTD=
EXTT0=
EXTT1=
EXTT2=
EXTT3=
EXTT4=
EXTT5=
EXTT6=
EXTT7=
EXTT8=
EXTT9=
EXTT10=
EXTT11=
EXTT12=
PLAYORDER=
